<?xml version="1.0" encoding="utf-8"?>
<!-- Generator: Adobe Illustrator 22.0.1, SVG Export Plug-In . SVG Version: 6.00 Build 0)  -->
<svg version="1.1" id="Layer_1" xmlns="http://www.w3.org/2000/svg" xmlns:xlink="http://www.w3.org/1999/xlink" x="0px" y="0px"
	 viewBox="0 0 418.9 182.3" style="enable-background:new 0 0 418.9 182.3;" xml:space="preserve">
<style type="text/css">
	.st0{fill:#404041;}
	.st1{fill:#58595B;}
	.st2{fill:#1A75BC;}
</style>
<g>
	<path class="st0" d="M62.6,131.1h-6.7L30.4,54.6h6.1L59,121.9"/>
</g>
<g>
	<path class="st0" d="M102.8,131.1h-6.7L70.7,54.6h6.1l22.5,67.4"/>
</g>
<g>
	<path class="st1" d="M70.7,54.6l22.4,67.4L161.1,7.3h10.4L99.7,131.1H90L64.9,54.6H70.7z"/>
</g>
<g>
	<path class="st1" d="M30.9,54.6l22.5,67.4l44.1-73.5h10.4l-48,82.6h-9.7L24.8,54.6H30.9z"/>
</g>
<g>
	<path class="st2" d="M168,7.3h10.4l-71.8,123.8H95.2L168,7.3z"/>
</g>
<g>
	<path class="st2" d="M100.8,48.5h10.4l-47.8,82.6H51.9L100.8,48.5z"/>
</g>
<g>
	<g>
		<path class="st1" d="M79.8,178.1l-0.4-0.1c-0.6-0.2-64.2-16.1-72.6-94.5C2.8,47,4,26.5,4,26.3l0.1-1.7l1.8,0
			c0.4,0,43.4-0.4,72.8-21.2l0.4,0.2l1.1,0.8c29.5,20.9,68.7,20.2,69.1,20.2l-2.5,3.7c-1.5,0-36.7-0.3-66.9-21.1
			C52.6,25.8,16.2,28,7.7,28.2c-0.2,5.6-0.5,24.7,2.8,54.8c7.8,72.4,63.8,89.6,69.4,91.1c5.5-1.5,61.6-18.8,69.3-91.1
			c0.6-5.2,1-7.8,1.4-12.7l3.7-7.2c-0.4,5-0.9,15-1.4,20.3c-8.4,78.4-72,94.3-72.6,94.5L79.8,178.1z"/>
	</g>
	<polygon class="st1" points="146.3,22.7 149.2,24.5 146.7,28.3 143.7,26.4 	"/>
	<polygon class="st1" points="151.4,61.4 154.3,63.3 150.5,70.8 150.1,69.3 	"/>
</g>
<g>
	<path class="st2" d="M163.7,130.8l-1.2-26.8h4.7l0.3,13.8c0,3.3,0,5.8-0.1,7.9h0.1c0.8-2.2,1.6-4.5,3-7.8l6-13.9h5.1l0.2,13.5
		c0,3.3,0,5.8-0.1,8.1h0.1c0.9-2.5,1.8-5.1,2.8-7.8l5.8-13.8h4.9l-12.1,26.8h-5l-0.4-12.9c-0.1-3.1,0-5.3,0.2-8.4h-0.1
		c-0.9,2.7-1.8,5.3-3,8.2l-5.9,13.1H163.7z"/>
	<path class="st2" d="M206.8,129.7c-1.9,1-4.5,1.5-6.8,1.5c-5.4,0-8-3.3-8-8c0-5.9,4.3-12.2,11-12.2c3.8,0,6.2,2.2,6.2,5.5
		c0,5-5.2,6.6-12.7,6.4c-0.1,0.7,0.1,2,0.5,2.7c0.8,1.3,2.1,2,4,2c2.2,0,3.9-0.6,5.3-1.3L206.8,129.7z M202.4,114.5
		c-2.9,0-4.8,2.6-5.4,4.9c4.8,0.1,7.8-0.6,7.8-2.9C204.8,115.2,203.8,114.5,202.4,114.5z"/>
	<path class="st2" d="M220.2,102.6l-2.4,11.7h0.1c1.6-2.1,3.9-3.3,6.4-3.3c4.1,0,5.9,3.4,5.9,6.8c0,6.1-4.2,13.4-12.5,13.4
		c-4.1,0-6.5-1.7-6.4-5.2c0-1.1,0.2-2.3,0.4-3.3l4.1-20.1H220.2z M216.1,123c-0.1,0.7-0.2,1.4-0.2,2.3c0,1.6,0.9,2.5,2.6,2.5
		c4.1,0,6.7-5.2,6.7-9c0-2.1-0.9-3.9-3.1-3.9c-2.4,0-4.9,2.5-5.7,6.4L216.1,123z"/>
	<path class="st2" d="M239.4,125.5c1.5,1,3.7,1.7,6,1.7c2.6,0,5-1.4,5-4c0-1.8-1.2-2.9-3.8-4.3c-3.1-1.7-5.5-3.8-5.5-7
		c0-5.1,4.5-8.4,9.9-8.4c3,0,4.9,0.8,6,1.4l-1.5,3.9c-0.9-0.5-2.7-1.2-4.9-1.2c-2.9,0-4.6,1.7-4.6,3.5c0,1.8,1.5,2.9,4,4.3
		c3.3,1.7,5.2,3.9,5.2,7.1c0,5.4-4.3,8.7-10.3,8.7c-3.3,0-5.9-0.9-7.1-1.9L239.4,125.5z"/>
	<path class="st2" d="M273,129.7c-1.9,1-4.5,1.5-6.8,1.5c-5.4,0-8-3.3-8-8c0-5.9,4.3-12.2,11-12.2c3.8,0,6.2,2.2,6.2,5.5
		c0,5-5.2,6.6-12.7,6.4c-0.1,0.7,0.1,2,0.5,2.7c0.8,1.3,2.1,2,4,2c2.2,0,3.9-0.6,5.3-1.3L273,129.7z M268.6,114.5
		c-2.9,0-4.8,2.6-5.4,4.9c4.8,0.1,7.8-0.6,7.8-2.9C271.1,115.2,270.1,114.5,268.6,114.5z"/>
	<path class="st2" d="M290.5,130.2c-1.1,0.6-3.1,1.1-5.6,1.1c-4.9,0-7.8-3.1-7.8-7.7c0-6.8,5.1-12.5,12.3-12.5
		c1.7,0,3.2,0.4,3.9,0.8l-1.2,3.6c-0.7-0.3-1.6-0.6-2.9-0.6c-4.5,0-7.3,4.1-7.3,8.2c0,2.9,1.7,4.5,4.3,4.5c1.8,0,3.1-0.5,4.1-0.9
		L290.5,130.2z"/>
	<path class="st2" d="M313.4,111.5l-2.5,13.4c-0.4,2.3-0.7,4.3-1,6h-4.1l0.4-3.4h-0.1c-1.9,2.5-4.3,3.8-6.7,3.8
		c-2.8,0-5.1-1.5-5.1-5.5c0-1,0.1-2.1,0.4-3.5l2.1-10.9h4.6l-2,10.6c-0.2,1-0.3,1.9-0.3,2.7c0,1.6,0.6,2.7,2.5,2.7
		c2.2,0,4.7-2.5,5.4-6.6l1.8-9.4H313.4z"/>
	<path class="st2" d="M314.6,130.8l2.3-11.9c0.5-2.7,0.8-5.7,1-7.4h4c-0.1,1.3-0.2,2.7-0.4,4.1h0.1c1.3-2.6,3.4-4.5,6.1-4.5
		c0.3,0,0.7,0,1,0.1l-0.9,4.5c-0.2,0-0.6-0.1-0.9-0.1c-3.3,0-5.4,3.3-6.2,7.5l-1.5,7.8H314.6z"/>
	<path class="st2" d="M328.1,130.8l3.7-19.4h4.7l-3.7,19.4H328.1z M332.5,106.2c0-1.7,1.3-2.8,2.8-2.8c1.4,0,2.5,1,2.5,2.5
		c0,1.7-1.3,2.8-2.9,2.8C333.4,108.7,332.4,107.6,332.5,106.2z"/>
	<path class="st2" d="M347.5,106.1l-1,5.3h4.4l-0.7,3.6h-4.3l-1.6,7.8c-0.2,0.9-0.3,1.9-0.3,2.7c0,1,0.5,1.7,1.7,1.7
		c0.6,0,1.1,0,1.6-0.1l-0.4,3.6c-0.7,0.2-1.9,0.4-3,0.4c-3.2,0-4.6-1.8-4.6-4c0-1.1,0.1-2.2,0.4-3.6l1.7-8.6h-2.6l0.7-3.6h2.6
		l0.8-4.2L347.5,106.1z"/>
	<path class="st2" d="M356.7,111.5l1.5,9.4c0.4,2.1,0.6,3.5,0.8,4.8h0.1c0.5-1.2,1-2.5,1.9-4.6l4.2-9.6h4.9l-7.1,14.3
		c-2.3,4.7-4.5,8.2-7.1,10.7c-2.2,2.2-4.8,3.1-6,3.3l-1.1-4c0.9-0.3,2.2-0.8,3.4-1.7c1.3-1,2.5-2.3,3.4-3.9c0.2-0.3,0.2-0.6,0.1-0.9
		l-3.9-17.9H356.7z"/>
	<path class="st2" d="M217.5,173.2c-0.6-0.7-1.1-1.4-1.6-2.1c-2,1.6-4.3,2.5-7.4,2.5c-4.8,0-7.8-2.8-7.8-6.9c0-4.1,3.1-6.8,6.5-8.4
		l0-0.1c-0.9-1.5-1.5-3.1-1.5-4.7c0-4.2,3.2-7.5,7.8-7.5c3.8,0,6.2,2.4,6.2,5.7c0,3.1-2.3,5.5-6.8,7.6v0.1c1.2,2,2.9,4.5,4.1,6.2
		c1.7-2,2.9-4.5,3.8-7.4h4.3c-1.4,4.2-3.2,7.6-6,10.3c1,1.4,2.3,3.1,3.7,4.7H217.5z M214,168.3c-1.3-1.8-3.4-4.7-5.1-7.5
		c-1.4,1-3.5,2.5-3.5,5.1c0,2.3,1.5,4.1,4.4,4.1C211.6,170.1,213,169.3,214,168.3z M210,152.9c0,1.4,0.4,2.5,1.2,3.7
		c2.6-1.2,4.4-2.8,4.4-5.1c0-1.4-0.7-2.6-2.4-2.6C211.4,149,210,150.7,210,152.9z"/>
	<path class="st2" d="M237.7,146.8c1.6-0.4,4.1-0.6,6.5-0.6c2.5,0,5.1,0.5,6.8,1.9c1.6,1.2,2.5,2.9,2.5,5.3c0,3.2-1.5,5.7-3.4,7.3
		c-2.1,1.7-5.2,2.5-8.4,2.5c-1,0-1.8-0.1-2.5-0.2l-1.9,10.1h-4.6L237.7,146.8z M239.9,159.2c0.8,0.2,1.4,0.2,2.4,0.2
		c3.9,0,6.5-2.5,6.5-5.7c0-2.8-2-3.9-4.7-3.9c-1.2,0-2,0.1-2.5,0.2L239.9,159.2z"/>
	<path class="st2" d="M253.1,173.2l2.3-11.9c0.5-2.7,0.8-5.7,1-7.4h4c-0.1,1.3-0.2,2.7-0.4,4.1h0.1c1.3-2.6,3.4-4.5,6.1-4.5
		c0.3,0,0.7,0,1,0.1l-0.9,4.5c-0.2,0-0.6-0.1-0.9-0.1c-3.3,0-5.4,3.3-6.2,7.5l-1.5,7.8H253.1z"/>
	<path class="st2" d="M266.5,173.2l3.7-19.4h4.7l-3.7,19.4H266.5z M270.9,148.5c0-1.7,1.3-2.8,2.8-2.8c1.4,0,2.5,1,2.5,2.5
		c0,1.7-1.3,2.8-2.9,2.8C271.9,151,270.9,150,270.9,148.5z"/>
	<path class="st2" d="M281.9,153.8l1.2,9.6c0.2,2.3,0.5,3.8,0.6,5.1h0.1c0.5-1.2,1-2.6,2.1-4.9l4.8-9.7h5.1l-10.8,19.4h-4.7
		l-3.3-19.4H281.9z"/>
	<path class="st2" d="M307,173.2c0-1.2,0.2-2.7,0.4-4.4h-0.1c-1.9,3.6-4.5,4.8-6.9,4.8c-3.5,0-5.7-2.7-5.7-6.6
		c0-6.6,4.6-13.7,13.7-13.7c2.1,0,4.4,0.4,5.8,0.9l-2,10.1c-0.6,2.9-0.9,6.5-0.8,8.8H307z M308.9,157.1c-0.5-0.1-1.1-0.2-1.9-0.2
		c-4.3,0-7.6,4.8-7.6,9.2c0,2,0.8,3.7,2.8,3.7c2.1,0,4.8-2.7,5.7-7.6L308.9,157.1z"/>
	<path class="st2" d="M329.2,172.5c-1.1,0.6-3.1,1.1-5.6,1.1c-4.9,0-7.8-3.1-7.8-7.7c0-6.8,5.1-12.5,12.3-12.5
		c1.7,0,3.2,0.4,3.9,0.8l-1.2,3.6c-0.7-0.3-1.6-0.6-2.9-0.6c-4.5,0-7.3,4.1-7.3,8.2c0,2.9,1.7,4.5,4.3,4.5c1.8,0,3.1-0.5,4.1-0.9
		L329.2,172.5z"/>
	<path class="st2" d="M338.3,153.8l1.5,9.4c0.4,2.1,0.6,3.5,0.8,4.8h0.1c0.5-1.2,1-2.5,1.9-4.6l4.2-9.6h4.9l-7.1,14.3
		c-2.3,4.7-4.5,8.2-7.1,10.7c-2.2,2.2-4.8,3.1-6,3.3l-1.1-4c0.9-0.3,2.2-0.8,3.4-1.7c1.3-1,2.5-2.3,3.4-3.9c0.2-0.3,0.2-0.6,0.1-0.9
		l-3.9-17.9H338.3z"/>
	<path class="st2" d="M363,146.3h4.7l-4.3,22.8h10.5l-0.8,4.1h-15.2L363,146.3z"/>
	<path class="st2" d="M388.7,173.2c0-1.2,0.2-2.7,0.4-4.4h-0.1c-1.9,3.6-4.5,4.8-6.9,4.8c-3.5,0-5.7-2.7-5.7-6.6
		c0-6.6,4.6-13.7,13.6-13.7c2.1,0,4.4,0.4,5.8,0.9l-2,10.1c-0.6,2.9-0.9,6.5-0.8,8.8H388.7z M390.6,157.1c-0.5-0.1-1.1-0.2-1.9-0.2
		c-4.3,0-7.6,4.8-7.6,9.2c0,2,0.8,3.7,2.8,3.7c2.2,0,4.8-2.7,5.7-7.6L390.6,157.1z"/>
	<path class="st2" d="M406.9,144.9l-2.4,11.7h0.1c1.6-2.1,3.9-3.3,6.4-3.3c4.1,0,5.8,3.4,5.8,6.8c0,6.1-4.2,13.4-12.5,13.4
		c-4.1,0-6.5-1.7-6.4-5.2c0-1.1,0.2-2.3,0.4-3.3l4.1-20.1H406.9z M402.8,165.3c-0.1,0.7-0.2,1.4-0.2,2.3c0,1.6,0.9,2.5,2.6,2.5
		c4.1,0,6.7-5.2,6.7-9c0-2.1-0.9-3.9-3.1-3.9c-2.4,0-4.9,2.5-5.7,6.4L402.8,165.3z"/>
</g>
<g>
	<path class="st2" d="M76.9,176.2l-0.4-0.1c-0.6-0.2-64.2-16.1-72.6-94.5c-3.9-36.4-2.7-57-2.7-57.2l0.1-1.7l1.8,0
		c0.4,0,43.4-0.4,72.8-21.2l1.1-0.8l1.1,0.8c29.5,20.9,68,21.2,68.4,21.2l-2.5,3.7c-1.5,0-36.7-0.3-66.9-21.1
		C49.6,23.9,13.3,26.1,4.7,26.4C4.5,32,4.3,51.1,7.5,81.2c7.8,72.4,63.8,89.6,69.4,91.1c5.5-1.5,61.6-18.8,69.3-91.1
		c0.6-5.2,1-7.8,1.4-12.7l3.7-7.2c-0.4,5-0.9,15-1.4,20.3c-8.4,78.4-72,94.3-72.6,94.5L76.9,176.2z"/>
</g>
</svg>
