<?xml version="1.0" encoding="utf-8"?>
<!-- Generator: Adobe Illustrator 22.0.1, SVG Export Plug-In . SVG Version: 6.00 Build 0)  -->
<svg version="1.1" id="Layer_1" xmlns="http://www.w3.org/2000/svg" xmlns:xlink="http://www.w3.org/1999/xlink" x="0px" y="0px"
	 viewBox="0 0 177.9 177.9" style="enable-background:new 0 0 177.9 177.9;" xml:space="preserve">
<style type="text/css">
	.st0{fill:#404041;}
	.st1{fill:#58595B;}
	.st2{fill:#1A75BC;}
</style>
<g>
	<path class="st0" d="M61.7,130.4H55L29.5,53.8h6.1l22.5,67.4"/>
</g>
<g>
	<path class="st0" d="M101.9,130.4h-6.7L69.8,53.8h6.1l22.5,67.4"/>
</g>
<g>
	<path class="st1" d="M69.8,53.8l22.4,67.4L160.2,6.5h10.4L98.8,130.4h-9.7L64,53.8H69.8z"/>
</g>
<g>
	<path class="st1" d="M30,53.8l22.5,67.4l44.1-73.5h10.4l-48,82.6h-9.7L23.9,53.8H30z"/>
</g>
<g>
	<path class="st2" d="M167.1,6.5h10.4l-71.8,123.8H94.3L167.1,6.5z"/>
</g>
<g>
	<path class="st2" d="M99.9,47.7h10.4l-47.8,82.6H51L99.9,47.7z"/>
</g>
<g>
	<g>
		<path class="st1" d="M78.9,177.3l-0.4-0.1c-0.6-0.2-64.2-16.1-72.6-94.5c-3.9-36.4-2.7-57-2.7-57.2l0.1-1.7l1.8,0
			c0.4,0,43.4-0.4,72.8-21.2l0.4,0.2l1.1,0.8c29.5,20.9,68.7,20.2,69.1,20.2l-2.5,3.7c-1.5,0-36.7-0.3-66.9-21.1
			C51.7,25,15.3,27.2,6.8,27.5c-0.2,5.6-0.5,24.7,2.8,54.8c7.8,72.4,63.8,89.6,69.4,91.1c5.5-1.5,61.6-18.8,69.3-91.1
			c0.6-5.2,1-7.8,1.4-12.7l3.7-7.2c-0.4,5-0.9,15-1.4,20.3c-8.4,78.4-72,94.3-72.6,94.5L78.9,177.3z"/>
	</g>
	<polygon class="st1" points="145.4,22 148.3,23.8 145.8,27.5 142.8,25.7 	"/>
	<polygon class="st1" points="150.5,60.6 153.4,62.5 149.6,70.1 149.2,68.6 	"/>
</g>
<g>
	<path class="st2" d="M76,175.5l-0.4-0.1c-0.6-0.2-64.2-16.1-72.6-94.5c-3.9-36.4-2.7-57-2.7-57.2L0.3,22L2,22
		c0.4,0,43.4-0.4,72.8-21.2L76,0L77,0.8c29.5,20.9,68,21.2,68.4,21.2l-2.5,3.7c-1.5,0-36.7-0.3-66.9-21.1
		C48.7,23.2,12.4,25.4,3.8,25.7c-0.2,5.6-0.5,24.7,2.8,54.8c7.8,72.4,63.8,89.6,69.4,91.1c5.5-1.5,61.6-18.8,69.3-91.1
		c0.6-5.2,1-7.8,1.4-12.7l3.7-7.2c-0.4,5-0.9,15-1.4,20.3c-8.4,78.4-72,94.3-72.6,94.5L76,175.5z"/>
</g>
</svg>
